<?xml version="1.0" encoding="UTF-8"?>
<svg xmlns="http://www.w3.org/2000/svg" viewBox="0 0 1200 1500" width="1200" height="1500">
  <defs>
    <radialGradient id="bg" cx="50%" cy="40%" r="80%">
      <stop offset="0%" stop-color="#8B4513" stop-opacity="0.4"/>
      <stop offset="50%" stop-color="#2C1810" stop-opacity="0.85"/>
      <stop offset="100%" stop-color="#2C1810" stop-opacity="1"/>
    </radialGradient>
    <filter id="noise">
      <feTurbulence type="fractalNoise" baseFrequency="0.9" numOctaves="3" stitchTiles="stitch"/>
      <feColorMatrix values="0 0 0 0 0  0 0 0 0 0  0 0 0 0 0  0 0 0 0.08 0"/>
      <feComposite in2="SourceGraphic" operator="in"/>
    </filter>
    <filter id="glow">
      <feGaussianBlur stdDeviation="15" result="blur"/>
      <feMerge>
        <feMergeNode in="blur"/>
        <feMergeNode in="SourceGraphic"/>
      </feMerge>
    </filter>
    <filter id="bigGlow">
      <feGaussianBlur stdDeviation="40"/>
    </filter>
  </defs>
  <rect width="1200" height="1500" fill="url(#bg)"/>
  <rect width="1200" height="1500" filter="url(#noise)" opacity="0.3"/>
  <g><circle cx="11" cy="145" r="0.5" fill="#FFFFFF" opacity="0.3"/>
<circle cx="223" cy="14" r="2.5" fill="#FFFFFF" opacity="0.32"/>
<circle cx="438" cy="645" r="0.8" fill="#FFFFFF" opacity="0.36"/>
<circle cx="1045" cy="1415" r="1.8" fill="#FFFFFF" opacity="0.59"/>
<circle cx="74" cy="649" r="0.5" fill="#FFFFFF" opacity="0.88"/>
<circle cx="470" cy="165" r="2.5" fill="#FFFFFF" opacity="0.5"/>
<circle cx="979" cy="228" r="0.5" fill="#FFFFFF" opacity="0.61"/>
<circle cx="1181" cy="464" r="2.5" fill="#FFFFFF" opacity="0.37"/>
<circle cx="1070" cy="121" r="2.5" fill="#FFFFFF" opacity="0.44"/>
<circle cx="1165" cy="463" r="0.5" fill="#FFFFFF" opacity="0.55"/>
<circle cx="1131" cy="17" r="0.8" fill="#FFFFFF" opacity="0.54"/>
<circle cx="295" cy="1190" r="0.8" fill="#FFFFFF" opacity="0.31"/>
<circle cx="827" cy="786" r="1.8" fill="#FFFFFF" opacity="0.77"/>
<circle cx="958" cy="64" r="1.2" fill="#FFFFFF" opacity="0.3"/>
<circle cx="874" cy="519" r="1.2" fill="#FFFFFF" opacity="0.54"/>
<circle cx="221" cy="174" r="0.8" fill="#FFFFFF" opacity="0.3"/>
<circle cx="610" cy="788" r="0.8" fill="#FFFFFF" opacity="0.37"/>
<circle cx="832" cy="290" r="1.2" fill="#FFFFFF" opacity="0.52"/>
<circle cx="259" cy="458" r="0.5" fill="#FFFFFF" opacity="0.7"/>
<circle cx="914" cy="122" r="0.8" fill="#FFFFFF" opacity="0.49"/>
<circle cx="213" cy="628" r="2.5" fill="#FFFFFF" opacity="0.65"/>
<circle cx="290" cy="388" r="0.5" fill="#FFFFFF" opacity="0.73"/>
<circle cx="949" cy="667" r="0.8" fill="#FFFFFF" opacity="0.95"/>
<circle cx="685" cy="2" r="0.8" fill="#FFFFFF" opacity="0.88"/>
<circle cx="14" cy="247" r="0.8" fill="#FFFFFF" opacity="0.65"/>
<circle cx="1068" cy="730" r="1.2" fill="#FFFFFF" opacity="0.72"/>
<circle cx="638" cy="1491" r="2.5" fill="#FFFFFF" opacity="0.76"/>
<circle cx="209" cy="903" r="1.8" fill="#FFFFFF" opacity="0.89"/>
<circle cx="587" cy="806" r="1.2" fill="#FFFFFF" opacity="0.42"/>
<circle cx="394" cy="44" r="1.8" fill="#FFFFFF" opacity="0.7"/>
<circle cx="723" cy="1308" r="2.5" fill="#FFFFFF" opacity="0.74"/>
<circle cx="22" cy="893" r="2.5" fill="#FFFFFF" opacity="0.41"/>
<circle cx="764" cy="156" r="1.2" fill="#FFFFFF" opacity="0.87"/>
<circle cx="1039" cy="980" r="2.5" fill="#FFFFFF" opacity="0.92"/>
<circle cx="1124" cy="827" r="2.5" fill="#FFFFFF" opacity="0.53"/>
<circle cx="863" cy="111" r="0.8" fill="#FFFFFF" opacity="0.94"/>
<circle cx="893" cy="459" r="2.5" fill="#FFFFFF" opacity="0.4"/>
<circle cx="1041" cy="204" r="0.5" fill="#FFFFFF" opacity="0.96"/>
<circle cx="1006" cy="306" r="1.8" fill="#FFFFFF" opacity="0.98"/>
<circle cx="71" cy="1169" r="2.5" fill="#FFFFFF" opacity="0.92"/>
<circle cx="928" cy="336" r="0.5" fill="#FFFFFF" opacity="0.92"/>
<circle cx="1158" cy="915" r="2.5" fill="#FFFFFF" opacity="0.46"/>
<circle cx="428" cy="1309" r="0.5" fill="#FFFFFF" opacity="0.58"/>
<circle cx="154" cy="226" r="0.5" fill="#FFFFFF" opacity="0.42"/>
<circle cx="101" cy="172" r="0.8" fill="#FFFFFF" opacity="0.35"/>
<circle cx="557" cy="42" r="1.2" fill="#FFFFFF" opacity="0.78"/>
<circle cx="321" cy="205" r="0.8" fill="#FFFFFF" opacity="0.41"/>
<circle cx="559" cy="1494" r="1.8" fill="#FFFFFF" opacity="0.77"/>
<circle cx="295" cy="1071" r="0.8" fill="#FFFFFF" opacity="0.36"/>
<circle cx="908" cy="235" r="1.2" fill="#FFFFFF" opacity="0.89"/>
<circle cx="646" cy="490" r="1.2" fill="#FFFFFF" opacity="0.48"/>
<circle cx="538" cy="136" r="0.8" fill="#FFFFFF" opacity="0.35"/>
<circle cx="722" cy="263" r="1.8" fill="#FFFFFF" opacity="0.43"/>
<circle cx="1145" cy="1179" r="0.8" fill="#FFFFFF" opacity="0.61"/>
<circle cx="774" cy="1473" r="1.2" fill="#FFFFFF" opacity="0.99"/>
<circle cx="863" cy="527" r="2.5" fill="#FFFFFF" opacity="0.69"/>
<circle cx="455" cy="315" r="1.2" fill="#FFFFFF" opacity="0.7"/>
<circle cx="256" cy="1204" r="0.8" fill="#FFFFFF" opacity="0.72"/>
<circle cx="14" cy="685" r="0.5" fill="#FFFFFF" opacity="0.45"/>
<circle cx="185" cy="778" r="1.8" fill="#FFFFFF" opacity="0.35"/>
<circle cx="208" cy="1190" r="1.8" fill="#FFFFFF" opacity="0.99"/>
<circle cx="1024" cy="1026" r="1.2" fill="#FFFFFF" opacity="0.95"/>
<circle cx="340" cy="942" r="1.2" fill="#FFFFFF" opacity="0.43"/>
<circle cx="229" cy="302" r="0.8" fill="#FFFFFF" opacity="0.81"/>
<circle cx="683" cy="125" r="1.8" fill="#FFFFFF" opacity="0.5"/>
<circle cx="986" cy="436" r="1.2" fill="#FFFFFF" opacity="0.74"/>
<circle cx="267" cy="1395" r="2.5" fill="#FFFFFF" opacity="0.86"/>
<circle cx="575" cy="411" r="0.8" fill="#FFFFFF" opacity="0.7"/>
<circle cx="767" cy="1166" r="1.2" fill="#FFFFFF" opacity="0.34"/>
<circle cx="739" cy="1430" r="2.5" fill="#FFFFFF" opacity="0.85"/>
<circle cx="110" cy="77" r="2.5" fill="#FFFFFF" opacity="0.59"/>
<circle cx="451" cy="223" r="2.5" fill="#FFFFFF" opacity="0.73"/>
<circle cx="1114" cy="1078" r="0.5" fill="#FFFFFF" opacity="0.55"/>
<circle cx="643" cy="926" r="2.5" fill="#FFFFFF" opacity="0.86"/>
<circle cx="779" cy="313" r="0.5" fill="#FFFFFF" opacity="0.58"/>
<circle cx="889" cy="891" r="2.5" fill="#FFFFFF" opacity="0.57"/>
<circle cx="546" cy="663" r="0.5" fill="#FFFFFF" opacity="0.66"/>
<circle cx="1080" cy="1344" r="1.8" fill="#FFFFFF" opacity="0.39"/>
<circle cx="916" cy="657" r="1.2" fill="#FFFFFF" opacity="0.96"/>
<circle cx="210" cy="1103" r="2.5" fill="#FFFFFF" opacity="0.45"/>
<circle cx="885" cy="497" r="0.5" fill="#FFFFFF" opacity="0.64"/>
<circle cx="107" cy="11" r="0.8" fill="#FFFFFF" opacity="0.86"/>
<circle cx="487" cy="1335" r="0.8" fill="#FFFFFF" opacity="0.46"/>
<circle cx="1061" cy="400" r="0.5" fill="#FFFFFF" opacity="0.77"/>
<circle cx="738" cy="137" r="0.8" fill="#FFFFFF" opacity="0.34"/>
<circle cx="625" cy="1201" r="1.2" fill="#FFFFFF" opacity="0.99"/>
<circle cx="164" cy="117" r="0.5" fill="#FFFFFF" opacity="0.38"/>
<circle cx="1130" cy="518" r="1.2" fill="#FFFFFF" opacity="0.95"/>
<circle cx="486" cy="547" r="0.8" fill="#FFFFFF" opacity="0.31"/>
<circle cx="1181" cy="999" r="1.2" fill="#FFFFFF" opacity="0.56"/>
<circle cx="265" cy="276" r="0.8" fill="#FFFFFF" opacity="0.91"/>
<circle cx="467" cy="298" r="2.5" fill="#FFFFFF" opacity="0.91"/>
<circle cx="408" cy="866" r="0.5" fill="#FFFFFF" opacity="0.5"/>
<circle cx="162" cy="1090" r="0.8" fill="#FFFFFF" opacity="0.32"/>
<circle cx="490" cy="312" r="1.2" fill="#FFFFFF" opacity="0.43"/>
<circle cx="652" cy="591" r="2.5" fill="#FFFFFF" opacity="0.98"/>
<circle cx="53" cy="984" r="0.8" fill="#FFFFFF" opacity="0.68"/>
<circle cx="98" cy="1466" r="0.5" fill="#FFFFFF" opacity="0.4"/>
<circle cx="188" cy="25" r="1.8" fill="#FFFFFF" opacity="0.51"/>
<circle cx="44" cy="1305" r="1.8" fill="#FFFFFF" opacity="0.65"/>
<circle cx="166" cy="525" r="2.5" fill="#FFFFFF" opacity="0.98"/>
<circle cx="990" cy="887" r="2.5" fill="#FFFFFF" opacity="0.96"/>
<circle cx="607" cy="466" r="2.5" fill="#FFFFFF" opacity="0.51"/>
<circle cx="964" cy="739" r="1.2" fill="#FFFFFF" opacity="0.9"/>
<circle cx="955" cy="954" r="2.5" fill="#FFFFFF" opacity="0.62"/>
<circle cx="1091" cy="1329" r="2.5" fill="#FFFFFF" opacity="0.42"/>
<circle cx="1177" cy="151" r="2.5" fill="#FFFFFF" opacity="0.39"/>
<circle cx="288" cy="774" r="0.8" fill="#FFFFFF" opacity="0.97"/>
<circle cx="117" cy="228" r="0.8" fill="#FFFFFF" opacity="0.91"/>
<circle cx="789" cy="304" r="2.5" fill="#FFFFFF" opacity="0.99"/>
<circle cx="1078" cy="1194" r="0.8" fill="#FFFFFF" opacity="0.91"/>
<circle cx="949" cy="987" r="2.5" fill="#FFFFFF" opacity="0.83"/>
<circle cx="805" cy="1447" r="1.8" fill="#FFFFFF" opacity="0.48"/>
<circle cx="712" cy="258" r="1.8" fill="#FFFFFF" opacity="0.91"/>
<circle cx="223" cy="758" r="0.8" fill="#FFFFFF" opacity="0.9"/>
<circle cx="14" cy="1186" r="1.2" fill="#FFFFFF" opacity="0.94"/>
<circle cx="43" cy="764" r="1.2" fill="#FFFFFF" opacity="0.97"/>
<circle cx="662" cy="21" r="0.5" fill="#FFFFFF" opacity="0.57"/>
<circle cx="277" cy="39" r="1.8" fill="#FFFFFF" opacity="0.52"/>
<circle cx="704" cy="208" r="2.5" fill="#FFFFFF" opacity="0.99"/></g>
  <g><defs>
    <radialGradient id="saturn-600" cx="35%" cy="35%" r="70%">
      <stop offset="0%" stop-color="#F5DEB3"/>
      <stop offset="50%" stop-color="#D4AF37"/>
      <stop offset="100%" stop-color="#8B4513"/>
    </radialGradient>
  </defs>
  <!-- anéis traseiros -->
  <ellipse cx="600" cy="650" rx="836.0000000000001" ry="190.0" fill="none" stroke="#D4AF37" stroke-width="6" opacity="0.6" transform="rotate(-20 600 650)"/>
  <ellipse cx="600" cy="650" rx="722.0" ry="159.6" fill="none" stroke="#F5DEB3" stroke-width="3" opacity="0.7" transform="rotate(-20 600 650)"/>
  <!-- planeta -->
  <circle cx="600" cy="650" r="380" fill="url(#saturn-600)"/>
  <!-- anéis frontais -->
  <path d="M -236.0000000000001 650 A 836.0000000000001 190.0 0 0 1 1436.0 650" fill="none" stroke="#D4AF37" stroke-width="6" opacity="0.85" transform="rotate(-20 600 650)"/>
  <path d="M -122.0 650 A 722.0 159.6 0 0 1 1322.0 650" fill="none" stroke="#F5DEB3" stroke-width="3" opacity="0.9" transform="rotate(-20 600 650)"/></g>
  <text x="1140" y="1440" text-anchor="end" font-family="serif" font-size="28" fill="#D4AF37" opacity="0.7" font-style="italic">G. Miranda · CR-003</text>
</svg>